<?xml version="1.0" encoding="UTF-8"?>
<svg version="1.1" xmlns="http://www.w3.org/2000/svg" width="278" height="279">
<path d="M0 0 C2.44610905 1.91866678 4.79534545 3.90281363 7.125 5.9609375 C8.4553125 7.11142578 8.4553125 7.11142578 9.8125 8.28515625 C16.46435381 14.13453351 16.46435381 14.13453351 19.2890625 17.66796875 C20.92004786 20.03291185 20.92004786 20.03291185 23.125 20.9609375 C24.87266859 21.11514355 26.62342223 21.23543714 28.375 21.3359375 C36.85477861 22.06657117 41.079352 25.33426558 46.59375 31.640625 C64.170653 53.25304144 63.29468203 89.32661723 60.6640625 115.6328125 C58.60597895 131.15222675 53.02590653 147.31275798 41.125 157.9609375 C40.54878906 158.48171875 39.97257813 159.0025 39.37890625 159.5390625 C35.66938451 161.8792114 31.60970219 161.75258666 27.31640625 162.140625 C23.24720664 163.1865637 21.86911289 164.81545993 19.125 167.9609375 C18.19566751 168.95963309 17.26050988 169.95293234 16.3203125 170.94140625 C15.58107544 171.72028198 15.58107544 171.72028198 14.8269043 172.51489258 C-3.9271183 191.94253853 -31.43270815 205.77960131 -58.67578125 206.26171875 C-60.79571446 206.27929192 -62.91491686 206.28312252 -65.03491211 206.27661133 C-67.17418755 206.27345713 -69.31206668 206.29697837 -71.45117188 206.32226562 C-97.20752389 206.44264234 -121.12983245 196.13635725 -140.875 179.9609375 C-141.72578125 179.27515625 -142.5765625 178.589375 -143.453125 177.8828125 C-161.13450605 162.87031915 -175.66609705 139.13259462 -178.875 115.9609375 C-179.15216044 113.75803306 -179.15216044 113.75803306 -179.875 111.9609375 C-183.07624058 109.8627069 -183.07624058 109.8627069 -186.875 108.9609375 C-192.51421728 106.72653065 -192.51421728 106.72653065 -194.02734375 103.515625 C-195.16030461 98.7644988 -195.16552321 94.26459975 -195.125 89.3984375 C-195.13273438 88.46580078 -195.14046875 87.53316406 -195.1484375 86.57226562 C-195.12340582 77.79240456 -195.12340582 77.79240456 -192.875 73.9609375 C-188.30417063 70.91371792 -184.18815994 70.55250582 -178.875 69.9609375 C-178.65585938 68.96835938 -178.43671875 67.97578125 -178.2109375 66.953125 C-173.14637962 44.87712785 -162.98270958 26.8083312 -146.875 10.9609375 C-145.9675 10.05472656 -145.06 9.14851563 -144.125 8.21484375 C-137.63678906 2.01897953 -130.70231244 -2.68551676 -122.875 -7.0390625 C-121.77285156 -7.6578125 -120.67070313 -8.2765625 -119.53515625 -8.9140625 C-81.75749237 -28.99291249 -34.59617927 -24.5369641 0 0 Z " fill="#37B72B" transform="translate(207.875,44.0390625)"/>
<path d="M0 0 C12.8160514 11.14439252 16.56199451 28.34555977 18.875 44.5 C18.98869339 47.05723998 19.06217249 49.5872342 19.078125 52.14453125 C19.08382507 52.87258469 19.08952515 53.60063812 19.09539795 54.35075378 C19.1048092 55.891292 19.11136645 57.43185 19.11523438 58.97241211 C19.12481347 61.26780244 19.1558185 63.56224601 19.1875 65.85742188 C19.32478861 84.80579972 16.6115611 106.53196593 3.875 121.5 C-0.29693108 125.29266461 -2.87550536 126.81333777 -8.57421875 126.73632812 C-14.04560742 126.22940774 -19.3261788 124.6483197 -24.625 123.25 C-25.88022461 122.92717041 -27.13544922 122.60434082 -28.42871094 122.27172852 C-30.90458472 121.6348236 -33.37955638 120.99439924 -35.85351562 120.35009766 C-39.68806932 119.35368602 -43.52951122 118.39075935 -47.375 117.4375 C-48.57898438 117.13585937 -49.78296875 116.83421875 -51.0234375 116.5234375 C-54.27704686 115.70962247 -57.53291037 114.90514008 -60.7890625 114.1015625 C-62.85937533 113.58854302 -64.92968783 113.07552218 -67 112.5625 C-67.93231445 112.33361084 -68.86462891 112.10472168 -69.82519531 111.86889648 C-74.84698815 110.62203841 -79.84165218 109.30726573 -84.81916046 107.89309692 C-96.03850981 104.71663425 -107.34173498 101.90568024 -118.6643219 99.12388611 C-122.18305059 98.25930818 -125.70092888 97.39134015 -129.21862793 96.52258301 C-136.68670424 94.67881851 -144.15577199 92.83909249 -151.625 91 C-160.29406754 88.86547994 -168.96269751 86.72921458 -177.63026428 84.58860779 C-181.06251761 83.7418737 -184.495528 82.89826245 -187.92858887 82.05480957 C-200.05326166 79.06658653 -212.11860433 75.93402556 -224.125 72.5 C-224.9048923 69.55290859 -225.24329696 67.00794985 -225.22265625 63.953125 C-225.21943359 63.10878906 -225.21621094 62.26445312 -225.21289062 61.39453125 C-225.20451172 60.52183594 -225.19613281 59.64914063 -225.1875 58.75 C-225.18298828 57.86183594 -225.17847656 56.97367188 -225.17382812 56.05859375 C-225.162074 53.87232671 -225.14564249 51.68619821 -225.125 49.5 C-218.17543163 46.66361636 -211.10982241 44.90702863 -203.8125 43.1875 C-202.53503906 42.88263672 -201.25757813 42.57777344 -199.94140625 42.26367188 C-190.40789001 39.99673592 -180.84612017 37.86288127 -171.27392578 35.76586914 C-163.21775832 33.9918789 -155.19993503 32.08634298 -147.1875 30.125 C-136.27951538 27.45714174 -125.34279483 24.9696621 -114.375 22.5625 C-102.079919 19.86361559 -89.83418695 17.01334248 -77.61148071 14.00430298 C-65.00054367 10.90396066 -52.34126407 8.05185772 -39.65234375 5.2890625 C-38.23563166 4.97937439 -36.81896425 4.6694818 -35.40234375 4.359375 C-34.37281082 4.1352594 -34.37281082 4.1352594 -33.32247925 3.90661621 C-29.79366176 3.12837927 -26.28824906 2.2966921 -22.79345703 1.37695312 C-21.7294442 1.09878754 -21.7294442 1.09878754 -20.64393616 0.81500244 C-18.69711629 0.30018967 -16.75380827 -0.22785224 -14.81079102 -0.75683594 C-9.55565383 -1.81642643 -4.96190453 -2.38171418 0 0 Z " fill="#2DB0FD" transform="translate(244.125,73.5)"/>
<path d="M0 0 C0.65226562 0.13277344 1.30453125 0.26554688 1.9765625 0.40234375 C2.85054687 0.57894531 3.72453125 0.75554687 4.625 0.9375 C5.48351562 1.11152344 6.34203125 1.28554687 7.2265625 1.46484375 C10.14170057 2.02734222 13.07148391 2.51191398 16 3 C16.33 9.27 16.66 15.54 17 22 C23.11416998 24.29281374 28.84255008 26.12866123 35.125 27.6875 C35.99253906 27.91244141 36.86007813 28.13738281 37.75390625 28.36914062 C42.24143224 29.49272971 46.33458274 30.39499539 51 30 C53.05922402 27.94077598 52.41427579 23.78291876 52.5625 20.9375 C52.62727539 19.79958008 52.62727539 19.79958008 52.69335938 18.63867188 C52.79973633 16.75934562 52.90039934 14.87969756 53 13 C61.44475144 14.82306342 69.8269573 16.89174278 78.21484375 18.95703125 C79.79553454 19.34577034 81.37622816 19.73449795 82.95692444 20.12321472 C86.26452275 20.93692503 89.57189735 21.75153799 92.87915039 22.56665039 C97.06343995 23.59773057 101.24855479 24.62541692 105.43389034 25.65224171 C108.70083982 26.4543836 111.96717907 27.25898958 115.23336983 28.06421471 C116.77290944 28.4433491 118.31265892 28.82163257 119.85264397 29.19895363 C128.80520089 31.39357588 137.7078665 33.71790413 146.5828104 36.20858097 C156.31571011 38.93906132 166.1132052 41.40881559 175.91552734 43.87646484 C178.23364447 44.46180169 180.55069845 45.05136418 182.86669922 45.64501953 C186.27082185 46.51746654 189.67792794 47.37725353 193.0859375 48.234375 C194.61448868 48.62964386 194.61448868 48.62964386 196.17391968 49.03289795 C203.10615182 50.75563054 209.87005515 51.60726176 217 52 C217 52.33 217 52.66 217 53 C216.33613281 53.01417969 215.67226562 53.02835938 214.98828125 53.04296875 C214.10527344 53.09066406 213.22226563 53.13835937 212.3125 53.1875 C211.44238281 53.22230469 210.57226562 53.25710937 209.67578125 53.29296875 C205.97204952 54.27161903 204.53820613 56.16065077 202 59 C182.99364782 79.36903339 156.77440316 95.6443555 128.25219727 97.20507812 C124.78120929 97.30817126 121.31243034 97.32633851 117.84008789 97.31567383 C115.70081245 97.31251963 113.56293332 97.33604087 111.42382812 97.36132812 C85.66747611 97.48170484 61.74516755 87.17541975 42 71 C41.14921875 70.31421875 40.2984375 69.6284375 39.421875 68.921875 C21.2247192 53.4714597 6.38841138 28.7280937 3.484375 4.8125 C2.87128224 2.51834645 1.77519827 1.52705228 0 0 Z " fill="#37B72B" transform="translate(25,153)"/>
<path d="M0 0 C5.95727637 2.74034713 8.83167436 7.49143383 12 13 C12.37125 13.64453125 12.7425 14.2890625 13.125 14.953125 C19.48545926 27.57466135 20.65395557 42.39896152 20.46655273 56.28710938 C20.4374102 58.63222642 20.44605295 60.97508807 20.45898438 63.3203125 C20.43477672 81.58325542 18.01251794 101.57114073 4.9296875 115.36328125 C2.10584856 117.7583997 -0.15525722 118.86859557 -3.8125 119.4375 C-9.15282496 118.70451422 -12.39398311 116.0721535 -15.6015625 111.93359375 C-29.65140111 90.06628084 -31.25819464 59.14356897 -26.3125 34.25 C-23.54991449 21.65589678 -19.62110757 10.96958691 -10.625 1.5 C-7.05324002 -0.54100571 -3.96126313 -0.74224851 0 0 Z " fill="#FCFEFF" transform="translate(239,77)"/>
<path d="M0 0 C14.1102058 12.46867196 18.34818703 33.18476923 20.125 51.125 C21.30171967 78.46412031 22.16177755 109.4656722 2.5 131 C1.71625 131.70125 0.9325 132.4025 0.125 133.125 C-0.45741455 133.65198486 -1.0398291 134.17896973 -1.63989258 134.72192383 C-7.99053086 138.70850146 -17.74535801 136.45172933 -24.68212891 134.97509766 C-31.38551459 133.43080598 -38.03528283 131.68674667 -44.6875 129.9375 C-46.9715951 129.35191364 -49.25609889 128.76791901 -51.54101562 128.18554688 C-60.14518898 125.98014782 -68.73356632 123.73182624 -77.28495407 121.32937717 C-86.16004308 118.83862055 -95.06513872 116.5303517 -104.02235603 114.35451889 C-106.36672097 113.78486832 -108.71011711 113.2113656 -111.05332947 112.63699341 C-116.85662348 111.21515123 -122.66119347 109.79855523 -128.46618652 108.38366699 C-133.41586336 107.1772385 -138.36479986 105.96786314 -143.31271172 104.75421524 C-145.60344982 104.19356617 -147.89520728 103.6372323 -150.18702698 103.08102417 C-157.1894009 101.36993367 -164.07950892 99.5546462 -170.875 97.125 C-170.85179687 98.25679688 -170.82859375 99.38859375 -170.8046875 100.5546875 C-170.78593099 102.03645175 -170.76773066 103.51822312 -170.75 105 C-170.73324219 105.74636719 -170.71648437 106.49273437 -170.69921875 107.26171875 C-170.6816041 109.21694461 -170.77179811 111.17242021 -170.875 113.125 C-172.875 115.125 -172.875 115.125 -174.8359375 115.20483398 C-181.68773993 114.43497633 -188.21933548 112.96889416 -194.875 111.1875 C-195.91011719 110.92259766 -196.94523437 110.65769531 -198.01171875 110.38476562 C-205.61897599 108.38102401 -205.61897599 108.38102401 -207.875 106.125 C-208.10205078 104.15380859 -208.10205078 104.15380859 -208.0703125 101.7734375 C-208.06386719 100.92265625 -208.05742187 100.071875 -208.05078125 99.1953125 C-208.03402344 98.30585938 -208.01726562 97.41640625 -208 96.5 C-207.99097656 95.6028125 -207.98195313 94.705625 -207.97265625 93.78125 C-207.9490497 91.56223414 -207.9161231 89.34374923 -207.875 87.125 C-208.79796875 87.14304687 -209.7209375 87.16109375 -210.671875 87.1796875 C-214.39407839 87.11613769 -217.3095346 86.19463962 -220.875 85.125 C-222.60289467 84.82588995 -224.33215289 84.53457985 -226.0625 84.25 C-230.11769698 83.46114709 -232.46594697 82.68620883 -234.875 79.125 C-236.36570454 74.41040346 -236.05916316 69.58264461 -236.0625 64.6875 C-236.07474609 63.74583984 -236.08699219 62.80417969 -236.09960938 61.83398438 C-236.11944971 52.46273466 -236.11944971 52.46273466 -233.875 49.125 C-229.42181281 46.2073946 -224.72438159 45.33419502 -219.5625 44.4375 C-210.42043546 42.72854156 -201.40114682 40.60478693 -192.375 38.375 C-180.57397606 35.46642792 -168.74772217 32.72519783 -156.875 30.125 C-145.33859425 27.59661678 -133.84307896 24.94723332 -122.375 22.125 C-110.15612446 19.11799963 -97.90229564 16.32103828 -85.61035156 13.62902832 C-75.2022011 11.34704246 -64.8341176 8.93949717 -54.48718262 6.39428711 C-8.10896207 -5.0079524 -8.10896207 -5.0079524 0 0 Z M-28.75198364 6.14361572 C-32.42196625 7.08380906 -36.0997426 7.99248916 -39.77734375 8.90234375 C-40.53248764 9.08974121 -41.28763153 9.27713867 -42.06565857 9.47021484 C-49.82375007 11.38304283 -57.62458876 13.07818948 -65.4375 14.75 C-74.62466277 16.7218984 -83.7723836 18.78924599 -92.875 21.125 C-101.97772315 23.46078141 -111.12583422 25.52555531 -120.3125 27.5 C-131.49904248 29.90561232 -142.63639284 32.46446227 -153.75 35.1875 C-154.44186401 35.35698151 -155.13372803 35.52646301 -155.84655762 35.70108032 C-156.53495728 35.86973602 -157.22335693 36.03839172 -157.93261719 36.2121582 C-159.30271771 36.54775684 -160.67283473 36.88328816 -162.04296875 37.21875 C-162.71043121 37.38219406 -163.37789368 37.54563812 -164.06558228 37.71403503 C-170.38598066 39.25760488 -176.72107644 40.73311256 -183.0625 42.1875 C-184.08214844 42.42186768 -185.10179687 42.65623535 -186.15234375 42.89770508 C-190.71451684 43.94498964 -195.27742369 44.98901078 -199.84130859 46.02880859 C-203.30244491 46.81775176 -206.76233034 47.61201206 -210.22158813 48.40914917 C-211.56129849 48.71683086 -212.90144193 49.02263356 -214.24203491 49.32644653 C-216.10773998 49.74939295 -217.97187544 50.17924514 -219.8359375 50.609375 C-220.90634277 50.85397461 -221.97674805 51.09857422 -223.07958984 51.35058594 C-225.57133607 52.04087581 -227.62542479 52.86989544 -229.875 54.125 C-229.90411321 57.2083134 -229.92183682 60.29159125 -229.9375 63.375 C-229.94587891 64.24769531 -229.95425781 65.12039062 -229.96289062 66.01953125 C-229.96611328 66.86386719 -229.96933594 67.70820313 -229.97265625 68.578125 C-229.97789307 69.35317383 -229.98312988 70.12822266 -229.98852539 70.92675781 C-229.87514239 73.12224284 -229.43561156 75.00653633 -228.875 77.125 C-209.94766173 82.34793749 -190.91997841 87.14548601 -171.859375 91.85546875 C-170.64611038 92.15531803 -169.43284576 92.45516731 -168.18281555 92.76410294 C-159.33114209 94.95068538 -150.47817957 97.13202502 -141.625 99.3125 C-132.71973875 101.50600174 -123.81495189 103.70139874 -114.91120148 105.90102577 C-111.39915202 106.76772884 -107.88634182 107.63129513 -104.37347412 108.49467468 C-93.36654575 111.20823575 -82.40205538 114.01155027 -71.49859619 117.11653137 C-66.65867456 118.46351069 -61.78615899 119.5747249 -56.875 120.625 C-49.94286003 122.1531246 -43.08056738 123.81664167 -36.25 125.75 C-35.51475098 125.95778076 -34.77950195 126.16556152 -34.02197266 126.37963867 C-32.62124491 126.77672922 -31.22068345 127.17440694 -29.8203125 127.57275391 C-17.2626202 131.71601427 -17.2626202 131.71601427 -4.75 129.625 C8.02329769 118.51778462 12.20400066 100.33934809 14.125 84.125 C14.38569698 79.1274419 14.45523462 74.14853898 14.44067383 69.14501953 C14.43752343 66.89175503 14.46103168 64.63982133 14.48632812 62.38671875 C14.56636861 44.1387334 11.81780104 21.12331366 -1.51953125 7.4375 C-5.43482479 4.08425589 -8.06750944 2.79749985 -13.23828125 2.87060547 C-18.51591749 3.37979963 -23.62713214 4.82941926 -28.75198364 6.14361572 Z " fill="#080D0C" transform="translate(248.875,68.875)"/>
<path d="M0 0 C1 1 1 1 1.0625 3.5625 C1.041875 4.366875 1.02125 5.17125 1 6 C-42.45726459 16.90510152 -42.45726459 16.90510152 -59.1875 20.5 C-59.91557861 20.65984375 -60.64365723 20.8196875 -61.39379883 20.984375 C-65.32228613 21.80314548 -68.98950531 22.14969187 -73 22 C-73.625 19.625 -73.625 19.625 -74 17 C-71.58288988 14.58288988 -70.23377743 14.43374779 -66.91796875 13.73828125 C-65.85441162 13.50979492 -64.79085449 13.28130859 -63.69506836 13.04589844 C-62.5375708 12.80387695 -61.38007324 12.56185547 -60.1875 12.3125 C-48.68339671 9.83916835 -37.24847475 7.17201155 -25.82299805 4.3605957 C-6.09392777 -0.46876367 -6.09392777 -0.46876367 0 0 Z " fill="#F5FBFF" transform="translate(204,88)"/>
<path d="M0 0 C6.08732676 -0.41981564 9.20826311 -0.16672773 14 4 C25.80035777 16.82647584 30.14083232 36.82455915 30.16796875 53.8203125 C30.17129715 54.5602243 30.17462555 55.30013611 30.17805481 56.06246948 C30.18309676 57.62399682 30.18546398 59.18553484 30.18530273 60.74707031 C30.18747431 63.09719366 30.20561766 65.44683541 30.22460938 67.796875 C30.25566376 76.39723349 29.82370869 84.54997752 28 93 C26.37624197 90.13373597 25.75038817 88.07954367 25.74462891 84.79248047 C25.73766998 83.96996796 25.73071106 83.14745544 25.72354126 82.30001831 C25.72453827 81.41468414 25.72553528 80.52934998 25.7265625 79.6171875 C25.70623303 77.70702582 25.68538164 75.79686964 25.6640625 73.88671875 C25.64171581 70.90343614 25.62509049 67.92037343 25.61914062 64.93701172 C25.56533887 48.90677855 24.95415005 32.53312147 17.0625 18.125 C16.74087891 17.47660156 16.41925781 16.82820313 16.08789062 16.16015625 C13.57691365 11.33630699 10.66946297 8.26057973 5.75 5.9375 C4 5 4 5 3 2 C2.01 1.34 1.02 0.68 0 0 Z " fill="#2EABF3" transform="translate(233,72)"/>
<path d="M0 0 C2.97 0.495 2.97 0.495 6 1 C6 12.88 6 24.76 6 37 C3.03 37.495 3.03 37.495 0 38 C-5.95497168 27.12570389 -4.90951945 14.91242927 -1.75390625 3.265625 C-1 1 -1 1 0 0 Z " fill="#313131" transform="translate(7,114)"/>
<path d="M0 0 C2.79239973 0.64279009 5.58390584 1.28908665 8.375 1.9375 C9.1690625 2.11990234 9.963125 2.30230469 10.78125 2.49023438 C11.92207031 2.75610352 11.92207031 2.75610352 13.0859375 3.02734375 C13.7876709 3.18968506 14.4894043 3.35202637 15.21240234 3.51928711 C17 4 17 4 19 5 C19 7.97 19 10.94 19 14 C16.95737483 13.71512349 14.91592973 13.42177949 12.875 13.125 C11.73804688 12.96257812 10.60109375 12.80015625 9.4296875 12.6328125 C6.13921085 12.02568583 3.14220897 11.13654367 0 10 C0 6.7 0 3.4 0 0 Z " fill="#32B027" transform="translate(50,159)"/>
<path d="M0 0 C0.33 0 0.66 0 1 0 C1.05003421 4.76479624 1.08601444 9.5294342 1.10986328 14.29443359 C1.11982216 15.91002064 1.13339418 17.52559015 1.15087891 19.14111328 C1.25098843 28.63974005 1.03876406 37.66351792 -1 47 C-3.50329643 43.22369617 -3.16999636 39.51599887 -2.9765625 35.171875 C-2.93902359 34.04836639 -2.93902359 34.04836639 -2.90072632 32.90216064 C-2.81877032 30.51762985 -2.72208861 28.13395787 -2.625 25.75 C-2.56673536 24.13024304 -2.50943262 22.51045117 -2.453125 20.890625 C-2.31322832 16.92659233 -2.16012553 12.96326499 -2 9 C-1.67 9 -1.34 9 -1 9 C-0.67 6.03 -0.34 3.06 0 0 Z " fill="#27A4EC" transform="translate(262,118)"/>
<path d="M0 0 C0.66 0.99 1.32 1.98 2 3 C-1.40170422 7.96986574 -4.43569986 12.32913593 -10 15 C-14.32445973 15.6536974 -18.27149656 15.48566896 -22 13 C-19.71826992 10.71826992 -18.95671089 10.67606392 -15.875 10.1875 C-9.87346341 8.95815299 -5.02403036 6.34028511 -1 1.6875 C-0.67 1.130625 -0.34 0.57375 0 0 Z " fill="#2FACF4" transform="translate(251,185)"/>
<path d="M0 0 C0.33 0 0.66 0 1 0 C1 1.65 1 3.3 1 5 C1.99 5.33 2.98 5.66 4 6 C4 11.94 4 17.88 4 24 C3.67 24 3.34 24 3 24 C2.67 30.93 2.34 37.86 2 45 C1.67 45 1.34 45 1 45 C0.97494385 44.01193359 0.9498877 43.02386719 0.92407227 42.00585938 C0.82925282 38.30815676 0.72922025 34.61060975 0.62768555 30.91308594 C0.58461643 29.31872216 0.54292424 27.72432053 0.50268555 26.12988281 C0.44429695 23.82605625 0.38080789 21.52241541 0.31640625 19.21875 C0.29969376 18.51633179 0.28298126 17.81391357 0.26576233 17.09020996 C0.16262248 13.57329987 -0.08673458 10.15885862 -0.58227539 6.67382812 C-1 3 -1 3 0 0 Z " fill="#4CB8F8" transform="translate(258,106)"/>
<path d="M0 0 C3.48328308 0.19716697 6.86860581 0.63647693 10.3125 1.1875 C9.3125 2.6875 9.3125 2.6875 7.3125 4.1875 C2.73840939 4.55052306 -0.75143081 4.81154613 -4.6875 2.1875 C-2.6875 0.1875 -2.6875 0.1875 0 0 Z " fill="#28A4EC" transform="translate(233.6875,195.8125)"/>
<path d="M0 0 C0.66 0 1.32 0 2 0 C3.42258812 3.82320557 4.24042276 6.91281305 4 11 C3.34 11 2.68 11 2 11 C-0.40240978 7.97474324 -1.05541631 6.5874129 -0.6875 2.6875 C-0.460625 1.800625 -0.23375 0.91375 0 0 Z " fill="#28A2E8" transform="translate(257,100)"/>
<path d="M0 0 C2 3 2 3 1.625 5.1875 C1.41875 5.785625 1.2125 6.38375 1 7 C0.34 7 -0.32 7 -1 7 C-2.63676257 8.9600281 -2.63676257 8.9600281 -4 11 C-4.66 10.67 -5.32 10.34 -6 10 C-5.65066406 9.52949219 -5.30132812 9.05898437 -4.94140625 8.57421875 C-4.48636719 7.95160156 -4.03132812 7.32898438 -3.5625 6.6875 C-2.88380859 5.76517578 -2.88380859 5.76517578 -2.19140625 4.82421875 C-0.82663692 2.90322899 -0.82663692 2.90322899 0 0 Z " fill="#3CB6FE" transform="translate(251,180)"/>
<path d="M0 0 C0.33 0 0.66 0 1 0 C1 3.96 1 7.92 1 12 C-2 8 -2 8 -1.75 6 C-1.5025 5.34 -1.255 4.68 -1 4 C-0.814375 3.2575 -0.62875 2.515 -0.4375 1.75 C-0.293125 1.1725 -0.14875 0.595 0 0 Z " fill="#32B6FE" transform="translate(261,118)"/>
</svg>
